<svg xmlns="http://www.w3.org/2000/svg" width="136.547" height="289.972" viewBox="0 0 136.547 289.972">
  <g id="Group_14" data-name="Group 14" transform="translate(-1076.665 -360.69)">
    <path id="Path_47" data-name="Path 47" d="M992.143,663.566s-2.653,1.825-2.774,3.356-1.917,2.372.746,7.5,6.622,11.69,13.38,11.52,5.216-4.109,5.216-4.109l-6.064-8.928-.324-5.666s-.061-3.888-2.941-3.668-4.162,4.545-4.162,4.545-.913-1.311-2-2.836S992.143,663.566,992.143,663.566Z" transform="translate(88 -44.833)" fill="#1d1d1d"/>
    <path id="Path_46" data-name="Path 46" d="M1022.852,558.674l-1.094,54.536a34.1,34.1,0,0,1-2.245,7.586c-1.423,2.833-27.683,51.219-27.683,51.219l3.213,4.548s2.043-4.1,4.288-4.267,2.744,3.119,2.744,3.119l34.979-45.6s2.9-2.177,4.957-12.432,7.659-48.36,7.659-48.36l18.409,50.78,26.979,75.637s4.814-.134,5.411-.658,1.528-6.29,2.7-6.463a7.819,7.819,0,0,1,2.2,0l-19.587-73.538s-6.463-39.333-9.053-45.757a89.674,89.674,0,0,1-4.006-12.531c-.174-.721-11.837,9.009-27.115,7.663S1022.852,558.674,1022.852,558.674Z" transform="translate(88.096 -53.32)" fill="#2599ff"/>
    <g id="Group_12" data-name="Group 12" transform="translate(1181.668 634.049)">
      <path id="Path_48" data-name="Path 48" d="M1086.038,685.132h6.657s1.116-5.941,2.791-6.108,3.73-.771,4.761.649a35.317,35.317,0,0,0,4.681,4.235l11.735.675s2.376.687-.517,1.718-21.92,8.3-21.92,8.3a16.19,16.19,0,0,1-2.645.54c-.83.122-2.434.257-2.853-.54C1087.815,692.858,1086.038,685.132,1086.038,685.132Z" transform="translate(-1086.037 -678.753)" fill="#1d1d1d"/>
      <path id="Path_49" data-name="Path 49" d="M1089.164,695.1l27.675-10.049.35.6-20.379,9.716Z" transform="translate(-1085.646 -678.754)" fill="#484848"/>
    </g>
    <path id="Path_50" data-name="Path 50" d="M1073.713,557.047v3.567S1065,571.393,1051,571.393s-22.4-.52-28.034-4.65-4.869-4.211-4.869-4.211l.408-21.086s-13.145-7.965-17.332-11.706-4.932-9.226-4.451-13.585,4.629-17.46,9.314-25.249,13.006-21.576,13.006-21.576,3.43-4.014,5.93-5.591,3.6-2.416,3.6-2.416a13.824,13.824,0,0,0,6.043,9.085c5.523,3.875,9.11,3.829,9.11,3.829l.611-9.718,4.208,8.877s4.192-3.479,4.108-6.92-3.856-7.029-3.856-7.029,13.707,1.942,17.565,11.712,12.214,30.026,12.214,30.026,1.8,4.036,1.8,6.6-6.662,43.469-6.662,43.469Z" transform="translate(90.164 -59.808)" fill="#fcca57"/>
    <path id="Path_51" data-name="Path 51" d="M1030.9,457.77l-4.951,3.4s-.616-.427,1.618,5.18,13.584,8.245,13.584,8.245l.57-9.9s-6.853-1.492-8.906-3.739S1030.9,457.77,1030.9,457.77Z" transform="translate(92.83 -59.718)" fill="#fedc43"/>
    <path id="Path_52" data-name="Path 52" d="M1044.6,459.086a4.956,4.956,0,0,1-.648,3.674,5.726,5.726,0,0,1-3.483,1.848l4.131,8.742s5.511-4.453,4.387-8.742a8.024,8.024,0,0,0-4.387-5.522Z" transform="translate(94.069 -59.607)" fill="#fedc43"/>
    <path id="Path_53" data-name="Path 53" d="M1032.339,448.916,1030.951,455l-1.068,2.882a13.635,13.635,0,0,0,7.73,6.68c5.847,2.179,7.816-1.479,7.816-1.479v-8.71a7.45,7.45,0,0,1-1.4,1.2c-.711.542-2.177,1.236-5.372-.179a15.647,15.647,0,0,1-3.42-2.273A7.775,7.775,0,0,1,1032.339,448.916Z" transform="translate(93.891 -59.315)" fill="#fbba74"/>
    <path id="Path_54" data-name="Path 54" d="M1032.057,439.94s-1.818-2.239-3.271-1.1.554,6.831,2.678,8.188,2.516-1.729,2.516-1.729l-.178-1.322-1.013-2.269s5.415,4.115,6.781,4.115h8.626l2.259-.979V441.97s-7.09,1.968-10.885-.264a35.422,35.422,0,0,1-7.513-6.7Z" transform="translate(93.756 -60.494)" fill="#fbba74"/>
    <path id="Path_55" data-name="Path 55" d="M1032.384,440.953s5.057,4.613,10.615,4.337,6.242-.523,6.242-.523l.944-.3s-.719,6.517-3.948,9.8-4.831,3.841-9.053,1.157-5.016-5-5.048-6.377a4.6,4.6,0,0,0-1.035-2.543s2.47-.554,1.283-4.178S1032.384,440.953,1032.384,440.953Z" transform="translate(93.994 -60.049)" fill="#6e4e5f"/>
    <path id="Path_56" data-name="Path 56" d="M1028.23,434.965v5.5s1.787-3.133,3.434-.555.421-5.058.421-5.058Z" transform="translate(93.751 -60.508)" fill="#1f1a1a"/>
    <path id="Path_57" data-name="Path 57" d="M1028.23,436.112a104.447,104.447,0,0,0,15.465-.26,67.223,67.223,0,0,1,8.214-.738s-.75-12.625-8.23-12.78-10.562,0-10.562,0-4.914.423-4.886,7.031S1028.23,436.112,1028.23,436.112Z" transform="translate(93.751 -61.575)" fill="#0f87f0"/>
    <g id="Ellipse_9" data-name="Ellipse 9" transform="translate(1133.437 380.552)" fill="#fff" stroke="#000" stroke-width="1">
      <circle cx="1.085" cy="1.085" r="1.085" stroke="none"/>
      <circle cx="1.085" cy="1.085" r="0.585" fill="none"/>
    </g>
    <g id="Ellipse_10" data-name="Ellipse 10" transform="translate(1139.946 380.552)" fill="#fff" stroke="#000" stroke-width="1">
      <circle cx="1.085" cy="1.085" r="1.085" stroke="none"/>
      <circle cx="1.085" cy="1.085" r="0.585" fill="none"/>
    </g>
    <g id="Group_13" data-name="Group 13" transform="translate(1103.506 438.404)">
      <path id="Path_59" data-name="Path 59" d="M1013.408,524.672l49.843-29.291,49.143,29.291-49.143,29.072Z" transform="translate(-1013.408 -495.381)" fill="#fdb872"/>
      <path id="Path_60" data-name="Path 60" d="M1112.391,522.282v6.182l-49.152,29.365-49.789-29.164v-6.337l49.789,28.835Z" transform="translate(-1013.404 -493.1)" fill="#f08d5a"/>
      <path id="Path_61" data-name="Path 61" d="M1057.291,543.555l3.76-2.545,5.811,3.825v6.531l-4.054,2.4v-6.554Z" transform="translate(-1009.687 -491.022)" fill="#cc557b"/>
      <path id="Path_62" data-name="Path 62" d="M1063.256,521.759l14.773-6.608s3.456,2,3.625,5.713a11.737,11.737,0,0,1-2.159,6.8Z" transform="translate(-1008.097 -493.215)" fill="#fff"/>
      <path id="Path_63" data-name="Path 63" d="M1059.09,522.628l14.46-6.721a35.289,35.289,0,0,0-18.026-4.455c-10.06.416-17.833,6.261-17.62,11.176s4.4,10.855,14.461,11.419a58.606,58.606,0,0,0,19.857-2.862l3.812-1.861Z" transform="translate(-1010.247 -493.53)" fill="#fff"/>
    </g>
    <path id="Path_58" data-name="Path 58" d="M1031.761,435.117s6.278,8.493,12.9,8.023,9.664-2.941,9.664-2.941a3.181,3.181,0,0,0,.465-3.734,5.585,5.585,0,0,0-3.368-2.459s-8.839.9-12.448,1.11A71.9,71.9,0,0,1,1031.761,435.117Z" transform="translate(94.05 -60.579)" fill="#006ccb"/>
    <path id="Path_69" data-name="Path 69" d="M1033.331,562.627s-.64,13.162-10.933,16.005" transform="translate(90.86 -51.755)" fill="none" stroke="#1284e8" stroke-width="0.3"/>
    <path id="Path_70" data-name="Path 70" d="M1020.445,572.629l-.68,41.263a29.283,29.283,0,0,1-3.057,9.275c-2.639,5.192-25.066,45.956-25.066,45.956" transform="translate(90.422 -53.627)" fill="none" stroke="#1377b5" stroke-width="0.25"/>
    <path id="Path_71" data-name="Path 71" d="M1025.879,580.758l-.871,29.535a31.987,31.987,0,0,1-2.889,9.432c-2.174,4.018-26.5,43.521-26.5,43.521" transform="translate(90.759 -52.938)" fill="none" stroke="#1284e8" stroke-width="0.3"/>
    <path id="Path_72" data-name="Path 72" d="M1134.112,506.233l43.938,120.9" transform="translate(4.871 12.34)" fill="none" stroke="#1377b5" stroke-width="0.3"/>
    <path id="Path_73" data-name="Path 73" d="M1139.69,507.737l38.835,114.9" transform="translate(5.343 12.467)" fill="none" stroke="#1284e8" stroke-width="0.3"/>
    <path id="Path_74" data-name="Path 74" d="M1159.329,508.757l5.484,30.5,1.617,9.238,18.066,67.639" transform="translate(7.009 12.553)" fill="none" stroke="#1377b5" stroke-width="0.2"/>
    <path id="Path_75" data-name="Path 75" d="M1057,472.828s5.836,15.871,5.836,26.722" transform="translate(95.964 -58.834)" fill="none" stroke="#dd9e24" stroke-width="0.1"/>
    <path id="Path_76" data-name="Path 76" d="M1028.526,483.417s-5.521,11.929-7.826,17.412-3.636,8.149-3.636,8.149-2.81,4.148,0,8.254,3.636,3.372,3.636,3.372" transform="translate(92.472 -58.454)" fill="none" stroke="#dd9e24" stroke-width="0.4"/>
    <path id="Path_77" data-name="Path 77" d="M1027.87,461.435a35.709,35.709,0,0,0-8.547,7.01c-1.84,1.991-3.691,5.545-5.69,8.71a43.031,43.031,0,0,0-3.468,5.894c-1.486,3.528-3.883,6.214-5.293,9.108-1.15,2.361-2.137,4.082-3.015,6.018a40,40,0,0,0-1.8,4.679s-6.463,15.358-2.724,22.293a31.373,31.373,0,0,0,1.952,2.991c2.946,3.1,17.139,15.281,34.266,17.029" transform="translate(90.805 -59.8)" fill="none" stroke="#dd9e24" stroke-width="0.3"/>
    <path id="Path_78" data-name="Path 78" d="M1069.017,492s-1.693,5.7-2.562,7.092" transform="translate(96.765 -57.209)" fill="none" stroke="#dd9e24" stroke-width="0.3"/>
    <path id="Path_79" data-name="Path 79" d="M1047.341,460.381a22.756,22.756,0,0,1,10.907,6.229c1.989,2,3.837,6.212,5.226,9.711,4.482,11.286,11.389,28.216,11.389,28.216" transform="translate(95.144 -59.889)" fill="none" stroke="#e3b04c" stroke-width="0.2"/>
  </g>
</svg>
