<svg id="logo" xmlns="http://www.w3.org/2000/svg" width="278.093" height="59.852" viewBox="0 0 278.093 59.852">
  <g id="Group_1" data-name="Group 1">
    <rect id="Rectangle_4" data-name="Rectangle 4" width="16.928" height="16.928" transform="translate(23.94 11.97) rotate(45)" fill="#fd8265" opacity="0.6"/>
    <path id="Rectangle_11" data-name="Rectangle 11" d="M0,0H16.928V16.928H2.171A2.171,2.171,0,0,1,0,14.758Z" transform="translate(11.97 23.94) rotate(45)" fill="#fd8265" opacity="0.8"/>
    <rect id="Rectangle_7" data-name="Rectangle 7" width="16.928" height="16.928" transform="translate(47.88 11.97) rotate(45)" fill="#fd8265" opacity="0.6"/>
    <rect id="Rectangle_9" data-name="Rectangle 9" width="16.928" height="16.928" transform="translate(35.91 23.94) rotate(45)" fill="#fd8265" opacity="0.8"/>
    <path id="Rectangle_13" data-name="Rectangle 13" d="M0,0H16.928V14.758a2.171,2.171,0,0,1-2.171,2.171H0Z" transform="translate(47.88 35.911) rotate(45)" fill="#fd8265"/>
    <path id="Rectangle_14" data-name="Rectangle 14" d="M0,0H16.928V14.758a2.171,2.171,0,0,1-2.171,2.171H0Z" transform="translate(23.94 35.911) rotate(45)" fill="#fd8265"/>
    <path id="Rectangle_15" data-name="Rectangle 15" d="M0,0H16.928V14.758a2.171,2.171,0,0,1-2.171,2.171H0Z" transform="translate(71.821 35.911) rotate(45)" fill="#fd8265"/>
    <rect id="Rectangle_10" data-name="Rectangle 10" width="16.928" height="16.928" transform="translate(59.85 23.94) rotate(45)" fill="#fd8265" opacity="0.8"/>
    <path id="Rectangle_12" data-name="Rectangle 12" d="M0,0H14.758a2.171,2.171,0,0,1,2.171,2.171V16.928H0Z" transform="translate(83.791 23.94) rotate(45)" fill="#fd8265" opacity="0.8"/>
    <rect id="Rectangle_8" data-name="Rectangle 8" width="16.928" height="16.928" transform="translate(71.821 11.97) rotate(45)" fill="#fd8265" opacity="0.6"/>
    <path id="Rectangle_5" data-name="Rectangle 5" d="M1.628,0h15.3V16.928H0V1.628A1.628,1.628,0,0,1,1.628,0Z" transform="translate(35.91) rotate(45)" fill="#fd8265" opacity="0.4"/>
    <path id="Rectangle_6" data-name="Rectangle 6" d="M1.628,0h15.3V16.928H0V1.628A1.628,1.628,0,0,1,1.628,0Z" transform="translate(59.85) rotate(45)" fill="#fd8265" opacity="0.4"/>
  </g>
  <path id="Path_265" data-name="Path 265" d="M-23.608,12.912h6.1L-25.8-11.472h-7.106L-41.2,12.912h6.1l1.219-3.832h9.057Zm-8.6-9.057L-29.356-5.1-26.5,3.855ZM-3.475-11.472v8.6A6.542,6.542,0,0,0-8.665-5C-13.228-5-16.99-.991-16.99,4.2s3.762,9.2,8.325,9.2a6.542,6.542,0,0,0,5.19-2.125v1.637H1.751V-11.472ZM-7.62,8.453a3.977,3.977,0,0,1-3.026-1.2A3.977,3.977,0,0,1-11.765,4.2a3.977,3.977,0,0,1,1.121-3.052A3.977,3.977,0,0,1-7.62-.047,3.977,3.977,0,0,1-4.6,1.148,3.977,3.977,0,0,1-3.475,4.2,3.977,3.977,0,0,1-4.594,7.256a3.977,3.977,0,0,1-3.026,1.2ZM25.089-4.993a5.736,5.736,0,0,0-5.051,2.3,5.183,5.183,0,0,0-4.563-2.3A5.346,5.346,0,0,0,10.807-2.9V-4.5H5.582V12.912h5.225V3.089c0-2.055.975-3.274,2.717-3.274,1.672,0,2.508,1.115,2.508,2.856V12.912h5.225V3.089c0-2.055.975-3.274,2.717-3.274,1.672,0,2.508,1.115,2.508,2.856V12.912h5.225V2.218C31.708-2.137,29.095-4.993,25.089-4.993ZM37.908-6.038a3.167,3.167,0,0,0,3.135-3.135,3.167,3.167,0,0,0-3.135-3.135,3.167,3.167,0,0,0-3.135,3.135,3.167,3.167,0,0,0,3.135,3.135ZM35.3,12.912h5.22V-4.505H35.3Zm19.263-17.9a5.957,5.957,0,0,0-4.981,2.125V-4.505h-5.23V12.912h5.225V3.4c0-2.473,1.324-3.588,3.24-3.588a2.873,2.873,0,0,1,3.031,3.17V12.91h5.225V2.218c0-4.7-3-7.211-6.515-7.211Zm20.029-6.479H64.834V12.912h9.753A11.807,11.807,0,0,0,86.431.72,11.807,11.807,0,0,0,74.588-11.472Zm0,19.019h-4.18V-6.108h4.18c3.832,0,6.479,2.647,6.479,6.827S78.42,7.547,74.588,7.547ZM102.037-4.505v1.637a6.542,6.542,0,0,0-5.19-2.125c-4.563,0-8.325,4.006-8.325,9.2s3.762,9.2,8.325,9.2a6.542,6.542,0,0,0,5.19-2.125v1.637h5.225V-4.505ZM97.892,8.453A3.977,3.977,0,0,1,93.746,4.2a4.147,4.147,0,1,1,8.29,0,3.977,3.977,0,0,1-4.144,4.253ZM122.066-4.505,118.792,6.154,114.925-4.505h-5.748L116.11,12.11c-.766,2.125-1.916,2.891-4.354,2.891v4.877c4.877.244,7.977-1.951,9.928-7.489L127.64-4.505Z" transform="translate(150.453 32.25)" fill="#fff"/>
</svg>
